<svg width="69" height="13" viewBox="0 0 69 13" fill="none" xmlns="http://www.w3.org/2000/svg">
<path d="M0.488 9V0.52H8.344V9H6.808V1.48L7.176 1.864H1.656L2.024 1.48V9H0.488ZM14.9481 9.096C14.0948 9.096 13.3375 8.90933 12.6761 8.536C12.0148 8.16267 11.4921 7.65067 11.1081 7C10.7241 6.33867 10.5321 5.592 10.5321 4.76C10.5321 3.91733 10.7241 3.17067 11.1081 2.52C11.4921 1.86933 12.0148 1.36267 12.6761 1C13.3375 0.626666 14.0948 0.44 14.9481 0.44C15.7908 0.44 16.5428 0.626666 17.2041 1C17.8761 1.36267 18.3988 1.86933 18.7721 2.52C19.1561 3.16 19.3481 3.90667 19.3481 4.76C19.3481 5.60267 19.1561 6.34933 18.7721 7C18.3988 7.65067 17.8761 8.16267 17.2041 8.536C16.5428 8.90933 15.7908 9.096 14.9481 9.096ZM14.9481 7.752C15.4921 7.752 15.9775 7.62933 16.4041 7.384C16.8415 7.13867 17.1828 6.792 17.4281 6.344C17.6735 5.88533 17.7961 5.35733 17.7961 4.76C17.7961 4.152 17.6735 3.62933 17.4281 3.192C17.1828 2.744 16.8415 2.39733 16.4041 2.152C15.9775 1.90667 15.4921 1.784 14.9481 1.784C14.4041 1.784 13.9188 1.90667 13.4921 2.152C13.0655 2.39733 12.7241 2.744 12.4681 3.192C12.2121 3.62933 12.0841 4.152 12.0841 4.76C12.0841 5.35733 12.2121 5.88533 12.4681 6.344C12.7241 6.792 13.0655 7.13867 13.4921 7.384C13.9188 7.62933 14.4041 7.752 14.9481 7.752ZM20.0956 8.984L20.1916 7.688C20.2663 7.69867 20.3356 7.70933 20.3996 7.72C20.4636 7.73067 20.5223 7.736 20.5756 7.736C20.917 7.736 21.1836 7.61867 21.3756 7.384C21.5783 7.14933 21.7276 6.84 21.8236 6.456C21.9196 6.06133 21.989 5.61867 22.0316 5.128C22.0743 4.63733 22.1063 4.14667 22.1276 3.656L22.2716 0.52H28.7836V9H27.2476V1.416L27.6156 1.864H23.2636L23.6156 1.4L23.5036 3.752C23.4716 4.49867 23.413 5.19733 23.3276 5.848C23.2423 6.49867 23.109 7.06933 22.9276 7.56C22.757 8.05067 22.517 8.43467 22.2076 8.712C21.909 8.98933 21.5196 9.128 21.0396 9.128C20.901 9.128 20.7516 9.112 20.5916 9.08C20.4423 9.05867 20.277 9.02667 20.0956 8.984ZM32.1856 12.2C31.7803 12.2 31.3856 12.1307 31.0016 11.992C30.6176 11.864 30.287 11.672 30.0096 11.416L30.6656 10.264C30.879 10.4667 31.1136 10.6213 31.3696 10.728C31.6256 10.8347 31.8976 10.888 32.1856 10.888C32.559 10.888 32.8683 10.792 33.1136 10.6C33.359 10.408 33.5883 10.0667 33.8016 9.576L34.3296 8.408L34.4896 8.216L37.8176 0.52H39.3216L35.2096 9.848C34.9643 10.4453 34.687 10.9147 34.3776 11.256C34.079 11.5973 33.7483 11.8373 33.3856 11.976C33.023 12.1253 32.623 12.2 32.1856 12.2ZM34.2016 9.272L30.3296 0.52H31.9296L35.2256 8.072L34.2016 9.272ZM46.2383 5.528C45.7903 5.74133 45.3263 5.912 44.8463 6.04C44.3769 6.15733 43.8916 6.216 43.3903 6.216C42.3663 6.216 41.5556 5.976 40.9583 5.496C40.3716 5.016 40.0783 4.27467 40.0783 3.272V0.52H41.6143V3.176C41.6143 3.784 41.8009 4.232 42.1743 4.52C42.5583 4.808 43.0703 4.952 43.7103 4.952C44.1156 4.952 44.5316 4.89867 44.9583 4.792C45.3956 4.68533 45.8223 4.536 46.2383 4.344V5.528ZM46.1263 9V0.52H47.6623V9H46.1263ZM54.4203 9.096C53.5136 9.096 52.7136 8.90933 52.0203 8.536C51.3376 8.16267 50.8043 7.65067 50.4203 7C50.0469 6.34933 49.8603 5.60267 49.8603 4.76C49.8603 3.91733 50.0416 3.17067 50.4043 2.52C50.7776 1.86933 51.2843 1.36267 51.9243 1C52.5749 0.626666 53.3056 0.44 54.1163 0.44C54.9376 0.44 55.6629 0.621333 56.2923 0.983999C56.9216 1.34667 57.4123 1.85867 57.7643 2.52C58.1269 3.17067 58.3083 3.93333 58.3083 4.808C58.3083 4.872 58.3029 4.94667 58.2923 5.032C58.2923 5.11733 58.2869 5.19733 58.2763 5.272H51.0603V4.168H57.4763L56.8523 4.552C56.8629 4.008 56.7509 3.52267 56.5163 3.096C56.2816 2.66933 55.9563 2.33867 55.5403 2.104C55.1349 1.85867 54.6603 1.736 54.1163 1.736C53.5829 1.736 53.1083 1.85867 52.6923 2.104C52.2763 2.33867 51.9509 2.67467 51.7163 3.112C51.4816 3.53867 51.3643 4.02933 51.3643 4.584V4.84C51.3643 5.40533 51.4923 5.912 51.7483 6.36C52.0149 6.79733 52.3829 7.13867 52.8523 7.384C53.3216 7.62933 53.8603 7.752 54.4683 7.752C54.9696 7.752 55.4229 7.66667 55.8283 7.496C56.2443 7.32533 56.6069 7.06933 56.9163 6.728L57.7643 7.72C57.3803 8.168 56.9003 8.50933 56.3243 8.744C55.7589 8.97867 55.1243 9.096 54.4203 9.096ZM60.6911 9V0.52H62.2271V4.12H67.0591V0.52H68.5951V9H67.0591V5.448H62.2271V9H60.6911Z" fill="#1E1D1C"/>
</svg>
