<svg width="78" height="23" viewBox="0 0 78 23" fill="none" xmlns="http://www.w3.org/2000/svg">
<rect width="78" height="23" rx="5" fill="#05DA73"/>
<path d="M4.488 17V8.52H12.344V17H10.808V9.48L11.176 9.864H5.656L6.024 9.48V17H4.488ZM18.9481 17.096C18.0948 17.096 17.3375 16.9093 16.6761 16.536C16.0148 16.1627 15.4921 15.6507 15.1081 15C14.7241 14.3387 14.5321 13.592 14.5321 12.76C14.5321 11.9173 14.7241 11.1707 15.1081 10.52C15.4921 9.86933 16.0148 9.36267 16.6761 9C17.3375 8.62667 18.0948 8.44 18.9481 8.44C19.7908 8.44 20.5428 8.62667 21.2041 9C21.8761 9.36267 22.3988 9.86933 22.7721 10.52C23.1561 11.16 23.3481 11.9067 23.3481 12.76C23.3481 13.6027 23.1561 14.3493 22.7721 15C22.3988 15.6507 21.8761 16.1627 21.2041 16.536C20.5428 16.9093 19.7908 17.096 18.9481 17.096ZM18.9481 15.752C19.4921 15.752 19.9775 15.6293 20.4041 15.384C20.8415 15.1387 21.1828 14.792 21.4281 14.344C21.6735 13.8853 21.7961 13.3573 21.7961 12.76C21.7961 12.152 21.6735 11.6293 21.4281 11.192C21.1828 10.744 20.8415 10.3973 20.4041 10.152C19.9775 9.90667 19.4921 9.784 18.9481 9.784C18.4041 9.784 17.9188 9.90667 17.4921 10.152C17.0655 10.3973 16.7241 10.744 16.4681 11.192C16.2121 11.6293 16.0841 12.152 16.0841 12.76C16.0841 13.3573 16.2121 13.8853 16.4681 14.344C16.7241 14.792 17.0655 15.1387 17.4921 15.384C17.9188 15.6293 18.4041 15.752 18.9481 15.752ZM24.0956 16.984L24.1916 15.688C24.2663 15.6987 24.3356 15.7093 24.3996 15.72C24.4636 15.7307 24.5223 15.736 24.5756 15.736C24.917 15.736 25.1836 15.6187 25.3756 15.384C25.5783 15.1493 25.7276 14.84 25.8236 14.456C25.9196 14.0613 25.989 13.6187 26.0316 13.128C26.0743 12.6373 26.1063 12.1467 26.1276 11.656L26.2716 8.52H32.7836V17H31.2476V9.416L31.6156 9.864H27.2636L27.6156 9.4L27.5036 11.752C27.4716 12.4987 27.413 13.1973 27.3276 13.848C27.2423 14.4987 27.109 15.0693 26.9276 15.56C26.757 16.0507 26.517 16.4347 26.2076 16.712C25.909 16.9893 25.5196 17.128 25.0396 17.128C24.901 17.128 24.7516 17.112 24.5916 17.08C24.4423 17.0587 24.277 17.0267 24.0956 16.984ZM36.1856 20.2C35.7803 20.2 35.3856 20.1307 35.0016 19.992C34.6176 19.864 34.287 19.672 34.0096 19.416L34.6656 18.264C34.879 18.4667 35.1136 18.6213 35.3696 18.728C35.6256 18.8347 35.8976 18.888 36.1856 18.888C36.559 18.888 36.8683 18.792 37.1136 18.6C37.359 18.408 37.5883 18.0667 37.8016 17.576L38.3296 16.408L38.4896 16.216L41.8176 8.52H43.3216L39.2096 17.848C38.9643 18.4453 38.687 18.9147 38.3776 19.256C38.079 19.5973 37.7483 19.8373 37.3856 19.976C37.023 20.1253 36.623 20.2 36.1856 20.2ZM38.2016 17.272L34.3296 8.52H35.9296L39.2256 16.072L38.2016 17.272ZM50.2383 13.528C49.7903 13.7413 49.3263 13.912 48.8463 14.04C48.3769 14.1573 47.8916 14.216 47.3903 14.216C46.3663 14.216 45.5556 13.976 44.9583 13.496C44.3716 13.016 44.0783 12.2747 44.0783 11.272V8.52H45.6143V11.176C45.6143 11.784 45.8009 12.232 46.1743 12.52C46.5583 12.808 47.0703 12.952 47.7103 12.952C48.1156 12.952 48.5316 12.8987 48.9583 12.792C49.3956 12.6853 49.8223 12.536 50.2383 12.344V13.528ZM50.1263 17V8.52H51.6623V17H50.1263ZM58.4203 17.096C57.5136 17.096 56.7136 16.9093 56.0203 16.536C55.3376 16.1627 54.8043 15.6507 54.4203 15C54.0469 14.3493 53.8603 13.6027 53.8603 12.76C53.8603 11.9173 54.0416 11.1707 54.4043 10.52C54.7776 9.86933 55.2843 9.36267 55.9243 9C56.5749 8.62667 57.3056 8.44 58.1163 8.44C58.9376 8.44 59.6629 8.62133 60.2923 8.984C60.9216 9.34667 61.4123 9.85867 61.7643 10.52C62.1269 11.1707 62.3083 11.9333 62.3083 12.808C62.3083 12.872 62.3029 12.9467 62.2923 13.032C62.2923 13.1173 62.2869 13.1973 62.2763 13.272H55.0603V12.168H61.4763L60.8523 12.552C60.8629 12.008 60.7509 11.5227 60.5163 11.096C60.2816 10.6693 59.9563 10.3387 59.5403 10.104C59.1349 9.85867 58.6603 9.736 58.1163 9.736C57.5829 9.736 57.1083 9.85867 56.6923 10.104C56.2763 10.3387 55.9509 10.6747 55.7163 11.112C55.4816 11.5387 55.3643 12.0293 55.3643 12.584V12.84C55.3643 13.4053 55.4923 13.912 55.7483 14.36C56.0149 14.7973 56.3829 15.1387 56.8523 15.384C57.3216 15.6293 57.8603 15.752 58.4683 15.752C58.9696 15.752 59.4229 15.6667 59.8283 15.496C60.2443 15.3253 60.6069 15.0693 60.9163 14.728L61.7643 15.72C61.3803 16.168 60.9003 16.5093 60.3243 16.744C59.7589 16.9787 59.1243 17.096 58.4203 17.096ZM64.6911 17V8.52H66.2271V12.12H71.0591V8.52H72.5951V17H71.0591V13.448H66.2271V17H64.6911Z" fill="#1E1D1C"/>
</svg>
