<svg width="100" height="32" viewBox="0 0 100 32" fill="none" xmlns="http://www.w3.org/2000/svg">
<path d="M4.37998 9.41268V31.3697H0V9.41268H4.37998ZM4.37998 0.629883V5.02128H0V0.629883H4.37998Z" fill="white"/>
<path d="M4.37998 9.41268V31.3697H0V9.41268H4.37998ZM4.37998 0.629883V5.02128H0V0.629883H4.37998Z" fill="white"/>
<path d="M30.0011 22.5869V26.9783H25.6212V22.5869H30.0011ZM16.8612 5.02128V31.3697H15.591C14.6858 31.3697 13.9412 31.0769 13.3572 30.4914C12.7732 29.9059 12.4812 29.1593 12.4812 28.2518V5.02128H16.8612ZM25.6212 26.9783V31.3697H16.8612V26.9783H25.6212ZM25.6212 9.41268V13.8041H8.10124V9.41268H25.6212Z" fill="white"/>
<path d="M30.0011 22.5869V26.9783H25.6212V22.5869H30.0011ZM16.8612 5.02128V31.3697H15.591C14.6858 31.3697 13.9412 31.0769 13.3572 30.4914C12.7732 29.9059 12.4812 29.1593 12.4812 28.2518V5.02128H16.8612ZM25.6212 26.9783V31.3697H16.8612V26.9783H25.6212ZM25.6212 9.41268V13.8041H8.10124V9.41268H25.6212Z" fill="white"/>
<path d="M49.9437 9.41268H54.3237V31.3697H49.9437V9.41268ZM32.4238 17.9759C32.4238 16.1022 32.9056 14.4921 33.8692 13.1454C34.8328 11.7987 36.1468 10.774 37.8112 10.0714C39.5048 9.33949 41.3736 8.97354 43.4175 8.97354C45.4323 8.97354 47.2719 9.33949 48.9363 10.0714C50.6007 10.774 51.9147 11.7987 52.8783 13.1454C53.8419 14.4921 54.3237 16.1022 54.3237 17.9759V22.3234C54.3237 24.1971 53.8419 25.8219 52.8783 27.1978C51.9147 28.5445 50.6007 29.5838 48.9363 30.3157C47.2719 31.0184 45.4323 31.3697 43.4175 31.3697C41.3736 31.3697 39.5048 31.0184 37.8112 30.3157C36.1468 29.5838 34.8328 28.5445 33.8692 27.1978C32.9056 25.8219 32.4238 24.1971 32.4238 22.3234V17.9759ZM36.8038 21.7086C36.8038 23.6701 37.4754 25.0461 38.8186 25.8365C40.191 26.5977 41.7239 26.9783 43.4175 26.9783C45.0527 26.9783 46.5419 26.5977 47.8851 25.8365C49.2283 25.0461 49.8999 23.6701 49.8999 21.7086V18.5907C49.8999 16.6292 49.2283 15.2679 47.8851 14.5067C46.5711 13.7455 45.0819 13.3649 43.4175 13.3649C41.7239 13.3649 40.191 13.7455 38.8186 14.5067C37.4754 15.2679 36.8038 16.6292 36.8038 18.5907V21.7086ZM45.5637 17.9759V22.3673H41.1838V17.9759H45.5637Z" fill="white"/>
<path d="M49.9437 9.41268H54.3237V31.3697H49.9437V9.41268ZM32.4238 17.9759C32.4238 16.1022 32.9056 14.4921 33.8692 13.1454C34.8328 11.7987 36.1468 10.774 37.8112 10.0714C39.5048 9.33949 41.3736 8.97354 43.4175 8.97354C45.4323 8.97354 47.2719 9.33949 48.9363 10.0714C50.6007 10.774 51.9147 11.7987 52.8783 13.1454C53.8419 14.4921 54.3237 16.1022 54.3237 17.9759V22.3234C54.3237 24.1971 53.8419 25.8219 52.8783 27.1978C51.9147 28.5445 50.6007 29.5838 48.9363 30.3157C47.2719 31.0184 45.4323 31.3697 43.4175 31.3697C41.3736 31.3697 39.5048 31.0184 37.8112 30.3157C36.1468 29.5838 34.8328 28.5445 33.8692 27.1978C32.9056 25.8219 32.4238 24.1971 32.4238 22.3234V17.9759ZM36.8038 21.7086C36.8038 23.6701 37.4754 25.0461 38.8186 25.8365C40.191 26.5977 41.7239 26.9783 43.4175 26.9783C45.0527 26.9783 46.5419 26.5977 47.8851 25.8365C49.2283 25.0461 49.8999 23.6701 49.8999 21.7086V18.5907C49.8999 16.6292 49.2283 15.2679 47.8851 14.5067C46.5711 13.7455 45.0819 13.3649 43.4175 13.3649C41.7239 13.3649 40.191 13.7455 38.8186 14.5067C37.4754 15.2679 36.8038 16.6292 36.8038 18.5907V21.7086ZM45.5637 17.9759V22.3673H41.1838V17.9759H45.5637Z" fill="white"/>
<path d="M78.1001 19.0738C78.1001 17.1123 77.4285 15.7509 76.0853 14.9898C74.7421 14.1993 73.2529 13.8041 71.6177 13.8041C69.9242 13.8041 68.3912 14.1993 67.0188 14.9898C65.6756 15.7509 65.004 17.1123 65.004 19.0738V22.1917L60.624 22.8064V18.459C60.624 16.5853 61.1058 14.9751 62.0694 13.6284C63.033 12.2525 64.347 11.2132 66.0114 10.5105C67.705 9.77863 69.5738 9.41268 71.6177 9.41268C73.6325 9.41268 75.4575 9.77863 77.0927 10.5105C78.7571 11.2132 80.0711 12.2525 81.0347 13.6284C81.9983 14.9751 82.4801 16.5853 82.4801 18.459V31.3697H78.1001V19.0738ZM65.004 17.7563V31.3697H60.624V17.7563H65.004ZM100 26.9783V31.3697H95.62V26.9783H100ZM95.5762 19.0738C95.5762 17.1123 94.9046 15.7509 93.5614 14.9898C92.2182 14.1993 90.729 13.8041 89.0939 13.8041C87.4003 13.8041 85.8673 14.1993 84.4949 14.9898C83.1225 15.7509 82.4363 17.1123 82.4363 19.0738V22.1917L78.1001 22.8064V18.459C78.1001 16.5853 78.5819 14.9751 79.5455 13.6284C80.5091 12.2525 81.8231 11.2132 83.4875 10.5105C85.1811 9.77863 87.0499 9.41268 89.0939 9.41268C91.1086 9.41268 92.9482 9.77863 94.6126 10.5105C96.277 11.2132 97.591 12.2525 98.5546 13.6284C99.5182 14.9751 100 16.5853 100 18.459V26.9783H95.5762V19.0738ZM61.9818 9.41268V13.8041H57.6018V9.41268H61.9818Z" fill="white"/>
<path d="M78.1001 19.0738C78.1001 17.1123 77.4285 15.7509 76.0853 14.9898C74.7421 14.1993 73.2529 13.8041 71.6177 13.8041C69.9242 13.8041 68.3912 14.1993 67.0188 14.9898C65.6756 15.7509 65.004 17.1123 65.004 19.0738V22.1917L60.624 22.8064V18.459C60.624 16.5853 61.1058 14.9751 62.0694 13.6284C63.033 12.2525 64.347 11.2132 66.0114 10.5105C67.705 9.77863 69.5738 9.41268 71.6177 9.41268C73.6325 9.41268 75.4575 9.77863 77.0927 10.5105C78.7571 11.2132 80.0711 12.2525 81.0347 13.6284C81.9983 14.9751 82.4801 16.5853 82.4801 18.459V31.3697H78.1001V19.0738ZM65.004 17.7563V31.3697H60.624V17.7563H65.004ZM100 26.9783V31.3697H95.62V26.9783H100ZM95.5762 19.0738C95.5762 17.1123 94.9046 15.7509 93.5614 14.9898C92.2182 14.1993 90.729 13.8041 89.0939 13.8041C87.4003 13.8041 85.8673 14.1993 84.4949 14.9898C83.1225 15.7509 82.4363 17.1123 82.4363 19.0738V22.1917L78.1001 22.8064V18.459C78.1001 16.5853 78.5819 14.9751 79.5455 13.6284C80.5091 12.2525 81.8231 11.2132 83.4875 10.5105C85.1811 9.77863 87.0499 9.41268 89.0939 9.41268C91.1086 9.41268 92.9482 9.77863 94.6126 10.5105C96.277 11.2132 97.591 12.2525 98.5546 13.6284C99.5182 14.9751 100 16.5853 100 18.459V26.9783H95.5762V19.0738ZM61.9818 9.41268V13.8041H57.6018V9.41268H61.9818Z" fill="white"/>
</svg>
