<svg width="30" height="30" viewBox="0 0 30 30" fill="none" xmlns="http://www.w3.org/2000/svg">
<path d="M6.5625 14.0625H25.3125C25.5611 14.0625 25.7996 14.1613 25.9754 14.3371C26.1512 14.5129 26.25 14.7514 26.25 15C26.25 15.2486 26.1512 15.4871 25.9754 15.6629C25.7996 15.8387 25.5611 15.9375 25.3125 15.9375H6.5625C6.31386 15.9375 6.0754 15.8387 5.89959 15.6629C5.72377 15.4871 5.625 15.2486 5.625 15C5.625 14.7514 5.72377 14.5129 5.89959 14.3371C6.0754 14.1613 6.31386 14.0625 6.5625 14.0625Z" fill="#353433"/>
<path d="M6.95084 15L14.7265 22.7737C14.9025 22.9497 15.0014 23.1885 15.0014 23.4375C15.0014 23.6864 14.9025 23.9252 14.7265 24.1012C14.5504 24.2773 14.3117 24.3761 14.0627 24.3761C13.8138 24.3761 13.575 24.2773 13.399 24.1012L4.96146 15.6637C4.87415 15.5766 4.80489 15.4732 4.75763 15.3593C4.71036 15.2454 4.68604 15.1233 4.68604 15C4.68604 14.8766 4.71036 14.7545 4.75763 14.6407C4.80489 14.5268 4.87415 14.4233 4.96146 14.3362L13.399 5.89871C13.575 5.72268 13.8138 5.62378 14.0627 5.62378C14.3117 5.62378 14.5504 5.72268 14.7265 5.89871C14.9025 6.07475 15.0014 6.31351 15.0014 6.56246C15.0014 6.81142 14.9025 7.05018 14.7265 7.22621L6.95084 15Z" fill="#353433"/>
</svg>
