<svg width="41" height="40" viewBox="0 0 41 40" fill="none" xmlns="http://www.w3.org/2000/svg">
<path d="M34.4498 35.4166C34.4498 35.7481 34.3181 36.066 34.0837 36.3005C33.8493 36.5349 33.5313 36.6666 33.1998 36.6666H7.7998C7.46828 36.6666 7.15034 36.5349 6.91592 36.3005C6.6815 36.066 6.5498 35.7481 6.5498 35.4166C6.5498 28.5833 14.0498 23.2833 20.4998 23.2833C26.9498 23.2833 34.4498 28.5833 34.4498 35.4166ZM28.9998 11.8499C28.9965 13.5303 28.4952 15.1721 27.5592 16.5677C26.6232 17.9633 25.2945 19.0502 23.7411 19.691C22.1876 20.3318 20.4791 20.4977 18.8313 20.1679C17.1836 19.838 15.6706 19.0272 14.4835 17.8378C13.2964 16.6484 12.4886 15.1338 12.1619 13.4854C11.8353 11.837 12.0046 10.1288 12.6484 8.5766C13.2923 7.0244 14.3817 5.69787 15.7792 4.76461C17.1766 3.83135 18.8194 3.33326 20.4998 3.33325C22.7557 3.33767 24.9176 4.2369 26.5112 5.83361C28.1048 7.43032 28.9998 9.59404 28.9998 11.8499Z" fill="white"/>
</svg>
