<svg width="41" height="40" viewBox="0 0 41 40" fill="none" xmlns="http://www.w3.org/2000/svg">
<path d="M26.3332 29.6634L35.2248 20.7734C35.3804 20.6167 35.5715 20.5334 35.7982 20.5234C36.0248 20.5134 36.2265 20.5967 36.4032 20.7734C36.5798 20.9501 36.6687 21.1462 36.6698 21.3617C36.6709 21.5773 36.5821 21.774 36.4032 21.9517L27.2748 31.0801C27.006 31.3501 26.6921 31.4851 26.3332 31.4851C25.9743 31.4851 25.6604 31.3501 25.3915 31.0801L20.9932 26.6817C20.8376 26.5262 20.7543 26.3351 20.7432 26.1084C20.7321 25.8817 20.8154 25.6801 20.9932 25.5034C21.1709 25.3267 21.3676 25.2378 21.5832 25.2367C21.7987 25.2356 21.9954 25.3245 22.1732 25.5034L26.3332 29.6634ZM9.85984 33.3334C9.11873 33.3334 8.48484 33.0695 7.95817 32.5417C7.4315 32.014 7.16762 31.3812 7.1665 30.6434V9.3584C7.1665 8.6184 7.43039 7.98506 7.95817 7.4584C8.48595 6.93173 9.11928 6.66784 9.85817 6.66673H17.5865C17.7421 6.01562 18.0882 5.4684 18.6248 5.02507C19.1615 4.58062 19.7865 4.3584 20.4998 4.3584C21.2265 4.3584 21.8565 4.58062 22.3898 5.02507C22.9232 5.46729 23.2676 6.01451 23.4232 6.66673H31.1398C31.881 6.66673 32.5154 6.93062 33.0432 7.4584C33.5709 7.98618 33.8343 8.61951 33.8332 9.3584V15.8334C33.8332 16.0701 33.7532 16.2678 33.5932 16.4267C33.4332 16.5856 33.2348 16.6656 32.9982 16.6667C32.7615 16.6678 32.5637 16.5878 32.4048 16.4267C32.2459 16.2656 32.1665 16.0678 32.1665 15.8334V9.36006C32.1665 9.1034 32.0598 8.86784 31.8465 8.6534C31.6332 8.43895 31.3976 8.33229 31.1398 8.3334H27.1665V10.7051C27.1665 11.0862 27.0387 11.4062 26.7832 11.6651C26.5276 11.924 26.2109 12.0528 25.8332 12.0517H15.1665C14.7887 12.0517 14.4721 11.9228 14.2165 11.6651C13.9609 11.4073 13.8332 11.0873 13.8332 10.7051V8.3334H9.85984C9.60317 8.3334 9.36761 8.44006 9.15317 8.6534C8.93873 8.86673 8.83206 9.10229 8.83317 9.36006V30.6417C8.83317 30.8973 8.93984 31.1323 9.15317 31.3467C9.3665 31.5612 9.6015 31.6678 9.85817 31.6667H17.9998C18.2365 31.6667 18.4343 31.7467 18.5932 31.9067C18.7521 32.0667 18.8321 32.2651 18.8332 32.5017C18.8343 32.7384 18.7543 32.9362 18.5932 33.0951C18.4321 33.254 18.2343 33.3334 17.9998 33.3334H9.85984ZM20.5048 8.71673C20.8882 8.71673 21.2076 8.58784 21.4632 8.33007C21.7187 8.07118 21.8465 7.75006 21.8465 7.36673C21.8465 6.9834 21.7171 6.66395 21.4582 6.4084C21.1993 6.15284 20.8782 6.02506 20.4948 6.02506C20.1115 6.02506 19.7921 6.15506 19.5365 6.41506C19.2809 6.67506 19.1532 6.99618 19.1532 7.3784C19.1532 7.76062 19.2832 8.07951 19.5432 8.33506C19.8032 8.59062 20.1237 8.71673 20.5048 8.71673Z" fill="white"/>
</svg>
