<svg width="104" height="60" viewBox="0 0 104 60" fill="none" xmlns="http://www.w3.org/2000/svg">
<mask id="mask0_257_498" style="mask-type:alpha" maskUnits="userSpaceOnUse" x="3" y="0" width="101" height="31">
<path d="M7.43075 8.64221V30.2477H3.05078V8.64221H7.43075ZM7.43075 0V4.32111H3.05078V0H7.43075Z" fill="#05DA73"/>
<path d="M7.43075 8.64221V30.2477H3.05078V8.64221H7.43075ZM7.43075 0V4.32111H3.05078V0H7.43075Z" fill="url(#paint0_linear_257_498)" fill-opacity="0.2"/>
<path d="M7.43075 8.64221V30.2477H3.05078V8.64221H7.43075ZM7.43075 0V4.32111H3.05078V0H7.43075Z" fill="black" fill-opacity="0.2"/>
<path d="M33.0516 21.6057V25.9268H28.6717V21.6057H33.0516ZM19.9118 4.32129V30.2479H18.6416C17.7364 30.2479 16.9918 29.9598 16.4078 29.3837C15.8238 28.8075 15.5318 28.0729 15.5318 27.1799V4.32129H19.9118ZM28.6717 25.9268V30.2479H19.9118V25.9268H28.6717ZM28.6717 8.64239V12.9635H11.1519V8.64239H28.6717Z" fill="#05DA73"/>
<path d="M33.0516 21.6057V25.9268H28.6717V21.6057H33.0516ZM19.9118 4.32129V30.2479H18.6416C17.7364 30.2479 16.9918 29.9598 16.4078 29.3837C15.8238 28.8075 15.5318 28.0729 15.5318 27.1799V4.32129H19.9118ZM28.6717 25.9268V30.2479H19.9118V25.9268H28.6717ZM28.6717 8.64239V12.9635H11.1519V8.64239H28.6717Z" fill="url(#paint1_linear_257_498)" fill-opacity="0.2"/>
<path d="M33.0516 21.6057V25.9268H28.6717V21.6057H33.0516ZM19.9118 4.32129V30.2479H18.6416C17.7364 30.2479 16.9918 29.9598 16.4078 29.3837C15.8238 28.8075 15.5318 28.0729 15.5318 27.1799V4.32129H19.9118ZM28.6717 25.9268V30.2479H19.9118V25.9268H28.6717ZM28.6717 8.64239V12.9635H11.1519V8.64239H28.6717Z" fill="black" fill-opacity="0.2"/>
<path d="M52.9943 8.64256H57.3746V30.2481H52.9943V8.64256ZM35.4746 17.0687C35.4746 15.225 35.9564 13.6406 36.92 12.3155C37.8836 10.9903 39.1976 9.9821 40.862 9.29072C42.5555 8.57053 44.4243 8.21045 46.4683 8.21045C48.4829 8.21045 50.3228 8.57053 51.9869 9.29072C53.6513 9.9821 54.9654 10.9903 55.929 12.3155C56.8926 13.6406 57.3746 15.225 57.3746 17.0687V21.3466C57.3746 23.1902 56.8926 24.789 55.929 26.143C54.9654 27.4681 53.6513 28.4908 51.9869 29.211C50.3228 29.9024 48.4829 30.2481 46.4683 30.2481C44.4243 30.2481 42.5555 29.9024 40.862 29.211C39.1976 28.4908 37.8836 27.4681 36.92 26.143C35.9564 24.789 35.4746 23.1902 35.4746 21.3466V17.0687ZM39.8545 20.7416C39.8545 22.6717 40.5262 24.0257 41.8694 24.8035C43.2417 25.5525 44.7747 25.927 46.4683 25.927C48.1036 25.927 49.5926 25.5525 50.936 24.8035C52.279 24.0257 52.9505 22.6717 52.9505 20.7416V17.6737C52.9505 15.7436 52.279 14.404 50.936 13.655C49.622 12.906 48.1325 12.5315 46.4683 12.5315C44.7747 12.5315 43.2417 12.906 41.8694 13.655C40.5262 14.404 39.8545 15.7436 39.8545 17.6737V20.7416ZM48.6145 17.0687V21.3898H44.2345V17.0687H48.6145Z" fill="#05DA73"/>
<path d="M52.9943 8.64256H57.3746V30.2481H52.9943V8.64256ZM35.4746 17.0687C35.4746 15.225 35.9564 13.6406 36.92 12.3155C37.8836 10.9903 39.1976 9.9821 40.862 9.29072C42.5555 8.57053 44.4243 8.21045 46.4683 8.21045C48.4829 8.21045 50.3228 8.57053 51.9869 9.29072C53.6513 9.9821 54.9654 10.9903 55.929 12.3155C56.8926 13.6406 57.3746 15.225 57.3746 17.0687V21.3466C57.3746 23.1902 56.8926 24.789 55.929 26.143C54.9654 27.4681 53.6513 28.4908 51.9869 29.211C50.3228 29.9024 48.4829 30.2481 46.4683 30.2481C44.4243 30.2481 42.5555 29.9024 40.862 29.211C39.1976 28.4908 37.8836 27.4681 36.92 26.143C35.9564 24.789 35.4746 23.1902 35.4746 21.3466V17.0687ZM39.8545 20.7416C39.8545 22.6717 40.5262 24.0257 41.8694 24.8035C43.2417 25.5525 44.7747 25.927 46.4683 25.927C48.1036 25.927 49.5926 25.5525 50.936 24.8035C52.279 24.0257 52.9505 22.6717 52.9505 20.7416V17.6737C52.9505 15.7436 52.279 14.404 50.936 13.655C49.622 12.906 48.1325 12.5315 46.4683 12.5315C44.7747 12.5315 43.2417 12.906 41.8694 13.655C40.5262 14.404 39.8545 15.7436 39.8545 17.6737V20.7416ZM48.6145 17.0687V21.3898H44.2345V17.0687H48.6145Z" fill="url(#paint2_linear_257_498)" fill-opacity="0.2"/>
<path d="M52.9943 8.64256H57.3746V30.2481H52.9943V8.64256ZM35.4746 17.0687C35.4746 15.225 35.9564 13.6406 36.92 12.3155C37.8836 10.9903 39.1976 9.9821 40.862 9.29072C42.5555 8.57053 44.4243 8.21045 46.4683 8.21045C48.4829 8.21045 50.3228 8.57053 51.9869 9.29072C53.6513 9.9821 54.9654 10.9903 55.929 12.3155C56.8926 13.6406 57.3746 15.225 57.3746 17.0687V21.3466C57.3746 23.1902 56.8926 24.789 55.929 26.143C54.9654 27.4681 53.6513 28.4908 51.9869 29.211C50.3228 29.9024 48.4829 30.2481 46.4683 30.2481C44.4243 30.2481 42.5555 29.9024 40.862 29.211C39.1976 28.4908 37.8836 27.4681 36.92 26.143C35.9564 24.789 35.4746 23.1902 35.4746 21.3466V17.0687ZM39.8545 20.7416C39.8545 22.6717 40.5262 24.0257 41.8694 24.8035C43.2417 25.5525 44.7747 25.927 46.4683 25.927C48.1036 25.927 49.5926 25.5525 50.936 24.8035C52.279 24.0257 52.9505 22.6717 52.9505 20.7416V17.6737C52.9505 15.7436 52.279 14.404 50.936 13.655C49.622 12.906 48.1325 12.5315 46.4683 12.5315C44.7747 12.5315 43.2417 12.906 41.8694 13.655C40.5262 14.404 39.8545 15.7436 39.8545 17.6737V20.7416ZM48.6145 17.0687V21.3898H44.2345V17.0687H48.6145Z" fill="black" fill-opacity="0.2"/>
<path d="M81.151 18.1488C81.151 16.2187 80.4795 14.8791 79.1361 14.1301C77.7931 13.3523 76.3036 12.9634 74.6686 12.9634C72.9752 12.9634 71.4418 13.3523 70.0695 14.1301C68.7265 14.8791 68.055 16.2187 68.055 18.1488V21.2167L63.6748 21.8217V17.5438C63.6748 15.7001 64.1568 14.1157 65.1204 12.7906C66.0839 11.4366 67.398 10.414 69.0624 9.72261C70.7559 9.00241 72.6247 8.64233 74.6686 8.64233C76.6835 8.64233 78.5085 9.00241 80.1435 9.72261C81.808 10.414 83.122 11.4366 84.0856 12.7906C85.0492 14.1157 85.5308 15.7001 85.5308 17.5438V30.2478H81.151V18.1488ZM68.055 16.8524V30.2478H63.6748V16.8524H68.055ZM103.051 25.9267V30.2478H98.6707V25.9267H103.051ZM98.6268 18.1488C98.6268 16.2187 97.9553 14.8791 96.6123 14.1301C95.2689 13.3523 93.7799 12.9634 92.1448 12.9634C90.451 12.9634 88.9181 13.3523 87.5457 14.1301C86.1733 14.8791 85.4869 16.2187 85.4869 18.1488V21.2167L81.151 21.8217V17.5438C81.151 15.7001 81.6326 14.1157 82.5962 12.7906C83.5598 11.4366 84.8738 10.414 86.5383 9.72261C88.2317 9.00241 90.1005 8.64233 92.1448 8.64233C94.1593 8.64233 95.9992 9.00241 97.6632 9.72261C99.3277 10.414 100.642 11.4366 101.605 12.7906C102.569 14.1157 103.051 15.7001 103.051 17.5438V25.9267H98.6268V18.1488ZM65.0326 8.64233V12.9634H60.6528V8.64233H65.0326Z" fill="#05DA73"/>
<path d="M81.151 18.1488C81.151 16.2187 80.4795 14.8791 79.1361 14.1301C77.7931 13.3523 76.3036 12.9634 74.6686 12.9634C72.9752 12.9634 71.4418 13.3523 70.0695 14.1301C68.7265 14.8791 68.055 16.2187 68.055 18.1488V21.2167L63.6748 21.8217V17.5438C63.6748 15.7001 64.1568 14.1157 65.1204 12.7906C66.0839 11.4366 67.398 10.414 69.0624 9.72261C70.7559 9.00241 72.6247 8.64233 74.6686 8.64233C76.6835 8.64233 78.5085 9.00241 80.1435 9.72261C81.808 10.414 83.122 11.4366 84.0856 12.7906C85.0492 14.1157 85.5308 15.7001 85.5308 17.5438V30.2478H81.151V18.1488ZM68.055 16.8524V30.2478H63.6748V16.8524H68.055ZM103.051 25.9267V30.2478H98.6707V25.9267H103.051ZM98.6268 18.1488C98.6268 16.2187 97.9553 14.8791 96.6123 14.1301C95.2689 13.3523 93.7799 12.9634 92.1448 12.9634C90.451 12.9634 88.9181 13.3523 87.5457 14.1301C86.1733 14.8791 85.4869 16.2187 85.4869 18.1488V21.2167L81.151 21.8217V17.5438C81.151 15.7001 81.6326 14.1157 82.5962 12.7906C83.5598 11.4366 84.8738 10.414 86.5383 9.72261C88.2317 9.00241 90.1005 8.64233 92.1448 8.64233C94.1593 8.64233 95.9992 9.00241 97.6632 9.72261C99.3277 10.414 100.642 11.4366 101.605 12.7906C102.569 14.1157 103.051 15.7001 103.051 17.5438V25.9267H98.6268V18.1488ZM65.0326 8.64233V12.9634H60.6528V8.64233H65.0326Z" fill="url(#paint3_linear_257_498)" fill-opacity="0.2"/>
<path d="M81.151 18.1488C81.151 16.2187 80.4795 14.8791 79.1361 14.1301C77.7931 13.3523 76.3036 12.9634 74.6686 12.9634C72.9752 12.9634 71.4418 13.3523 70.0695 14.1301C68.7265 14.8791 68.055 16.2187 68.055 18.1488V21.2167L63.6748 21.8217V17.5438C63.6748 15.7001 64.1568 14.1157 65.1204 12.7906C66.0839 11.4366 67.398 10.414 69.0624 9.72261C70.7559 9.00241 72.6247 8.64233 74.6686 8.64233C76.6835 8.64233 78.5085 9.00241 80.1435 9.72261C81.808 10.414 83.122 11.4366 84.0856 12.7906C85.0492 14.1157 85.5308 15.7001 85.5308 17.5438V30.2478H81.151V18.1488ZM68.055 16.8524V30.2478H63.6748V16.8524H68.055ZM103.051 25.9267V30.2478H98.6707V25.9267H103.051ZM98.6268 18.1488C98.6268 16.2187 97.9553 14.8791 96.6123 14.1301C95.2689 13.3523 93.7799 12.9634 92.1448 12.9634C90.451 12.9634 88.9181 13.3523 87.5457 14.1301C86.1733 14.8791 85.4869 16.2187 85.4869 18.1488V21.2167L81.151 21.8217V17.5438C81.151 15.7001 81.6326 14.1157 82.5962 12.7906C83.5598 11.4366 84.8738 10.414 86.5383 9.72261C88.2317 9.00241 90.1005 8.64233 92.1448 8.64233C94.1593 8.64233 95.9992 9.00241 97.6632 9.72261C99.3277 10.414 100.642 11.4366 101.605 12.7906C102.569 14.1157 103.051 15.7001 103.051 17.5438V25.9267H98.6268V18.1488ZM65.0326 8.64233V12.9634H60.6528V8.64233H65.0326Z" fill="black" fill-opacity="0.2"/>
</mask>
<g mask="url(#mask0_257_498)">
<rect x="-6.33203" y="-8.07739" width="118.763" height="46.3601" fill="url(#paint4_linear_257_498)"/>
</g>
<path d="M16.224 41.2325V53.7605H15.12V43.1525L9.672 52.1525H9.12L3.696 43.1765V53.7605H2.592V41.2325H3.768L9.432 50.7125L15.12 41.2325H16.224ZM32.0203 41.2325V53.7605H30.8443V50.8085C30.3483 51.7845 29.6523 52.5365 28.7563 53.0645C27.8603 53.5925 26.8443 53.8565 25.7083 53.8565C24.5403 53.8565 23.4843 53.5845 22.5403 53.0405C21.5963 52.4965 20.8523 51.7445 20.3083 50.7845C19.7803 49.8245 19.5163 48.7285 19.5163 47.4965C19.5163 46.2645 19.7803 45.1685 20.3083 44.2085C20.8523 43.2325 21.5963 42.4805 22.5403 41.9525C23.4843 41.4085 24.5403 41.1365 25.7083 41.1365C26.8283 41.1365 27.8283 41.4005 28.7083 41.9285C29.6043 42.4565 30.3083 43.1925 30.8203 44.1365V41.2325H32.0203ZM25.7803 52.7765C26.7403 52.7765 27.5963 52.5525 28.3483 52.1045C29.1163 51.6565 29.7163 51.0325 30.1483 50.2325C30.5963 49.4325 30.8203 48.5205 30.8203 47.4965C30.8203 46.4725 30.5963 45.5605 30.1483 44.7605C29.7163 43.9605 29.1163 43.3365 28.3483 42.8885C27.5963 42.4405 26.7403 42.2165 25.7803 42.2165C24.8203 42.2165 23.9563 42.4405 23.1883 42.8885C22.4363 43.3365 21.8363 43.9605 21.3883 44.7605C20.9563 45.5605 20.7403 46.4725 20.7403 47.4965C20.7403 48.5205 20.9563 49.4325 21.3883 50.2325C21.8363 51.0325 22.4363 51.6565 23.1883 52.1045C23.9563 52.5525 24.8203 52.7765 25.7803 52.7765ZM45.2156 42.3125H37.8476V53.7605H36.6476V41.2325H45.2156V42.3125ZM57.8025 41.2325V53.7605H56.6265V50.8085C56.1305 51.7845 55.4345 52.5365 54.5385 53.0645C53.6425 53.5925 52.6265 53.8565 51.4905 53.8565C50.3225 53.8565 49.2665 53.5845 48.3225 53.0405C47.3785 52.4965 46.6345 51.7445 46.0905 50.7845C45.5625 49.8245 45.2985 48.7285 45.2985 47.4965C45.2985 46.2645 45.5625 45.1685 46.0905 44.2085C46.6345 43.2325 47.3785 42.4805 48.3225 41.9525C49.2665 41.4085 50.3225 41.1365 51.4905 41.1365C52.6105 41.1365 53.6105 41.4005 54.4905 41.9285C55.3865 42.4565 56.0905 43.1925 56.6025 44.1365V41.2325H57.8025ZM51.5625 52.7765C52.5225 52.7765 53.3785 52.5525 54.1305 52.1045C54.8985 51.6565 55.4985 51.0325 55.9305 50.2325C56.3785 49.4325 56.6025 48.5205 56.6025 47.4965C56.6025 46.4725 56.3785 45.5605 55.9305 44.7605C55.4985 43.9605 54.8985 43.3365 54.1305 42.8885C53.3785 42.4405 52.5225 42.2165 51.5625 42.2165C50.6025 42.2165 49.7385 42.4405 48.9705 42.8885C48.2185 43.3365 47.6185 43.9605 47.1705 44.7605C46.7385 45.5605 46.5225 46.4725 46.5225 47.4965C46.5225 48.5205 46.7385 49.4325 47.1705 50.2325C47.6185 51.0325 48.2185 51.6565 48.9705 52.1045C49.7385 52.5525 50.6025 52.7765 51.5625 52.7765ZM67.6691 47.2325C68.5971 47.4085 69.3091 47.7605 69.8051 48.2885C70.3171 48.8005 70.5731 49.4325 70.5731 50.1845C70.5731 50.9205 70.3251 51.5685 69.8291 52.1285C69.3491 52.6885 68.6931 53.1205 67.8611 53.4245C67.0291 53.7285 66.1251 53.8805 65.1491 53.8805C64.2531 53.8805 63.3731 53.7445 62.5091 53.4725C61.6611 53.1845 60.9171 52.7765 60.2771 52.2485L60.7571 51.3605C61.3171 51.8405 61.9811 52.2085 62.7491 52.4645C63.5331 52.7205 64.3251 52.8485 65.1251 52.8485C66.3091 52.8485 67.3091 52.6005 68.1251 52.1045C68.9411 51.5925 69.3491 50.9205 69.3491 50.0885C69.3491 49.3525 69.0051 48.7765 68.3171 48.3605C67.6451 47.9285 66.7331 47.7125 65.5811 47.7125H63.5651V46.8005H65.5331C66.5411 46.8005 67.3651 46.6005 68.0051 46.2005C68.6611 45.8005 68.9891 45.2645 68.9891 44.5925C68.9891 43.8085 68.6291 43.2085 67.9091 42.7925C67.2051 42.3605 66.3011 42.1445 65.1971 42.1445C63.7891 42.1445 62.4611 42.5045 61.2131 43.2245L60.8531 42.2645C62.2611 41.4805 63.7571 41.0885 65.3411 41.0885C66.7331 41.0885 67.8931 41.3925 68.8211 42.0005C69.7491 42.5925 70.2131 43.4005 70.2131 44.4245C70.2131 45.0805 69.9811 45.6565 69.5171 46.1525C69.0531 46.6485 68.4371 47.0085 67.6691 47.2325ZM84.9819 41.2325V53.7605H83.8059V51.1205C83.3739 51.9845 82.7499 52.6565 81.9339 53.1365C81.1339 53.6165 80.1899 53.8565 79.1019 53.8565C77.4699 53.8565 76.1819 53.4085 75.2379 52.5125C74.3099 51.6005 73.8459 50.2805 73.8459 48.5525V41.2325H75.0459V48.4565C75.0459 49.8645 75.4059 50.9365 76.1259 51.6725C76.8459 52.4085 77.8619 52.7765 79.1739 52.7765C80.5819 52.7765 81.7019 52.3365 82.5339 51.4565C83.3659 50.5765 83.7819 49.3925 83.7819 47.9045V41.2325H84.9819ZM89.6651 41.2325H90.8651V46.9445H99.3611V41.2325H100.561V53.7605H99.3611V48.0005H90.8651V53.7605H89.6651V41.2325Z" fill="white"/>
<defs>
<linearGradient id="paint0_linear_257_498" x1="3.05078" y1="15.1239" x2="7.43075" y2="15.1239" gradientUnits="userSpaceOnUse">
<stop stop-opacity="0"/>
<stop offset="1"/>
</linearGradient>
<linearGradient id="paint1_linear_257_498" x1="11.1519" y1="17.2846" x2="33.0516" y2="17.2846" gradientUnits="userSpaceOnUse">
<stop stop-opacity="0"/>
<stop offset="1"/>
</linearGradient>
<linearGradient id="paint2_linear_257_498" x1="35.4746" y1="19.2293" x2="57.3746" y2="19.2293" gradientUnits="userSpaceOnUse">
<stop stop-opacity="0"/>
<stop offset="1"/>
</linearGradient>
<linearGradient id="paint3_linear_257_498" x1="60.6528" y1="19.4451" x2="103.051" y2="19.4451" gradientUnits="userSpaceOnUse">
<stop stop-opacity="0"/>
<stop offset="1"/>
</linearGradient>
<linearGradient id="paint4_linear_257_498" x1="-6.33203" y1="-12.2742" x2="116.252" y2="36.3872" gradientUnits="userSpaceOnUse">
<stop offset="0.02" stop-color="#FF8964"/>
<stop offset="0.15" stop-color="#FFD951"/>
<stop offset="0.3" stop-color="#B0F254"/>
<stop offset="0.397368" stop-color="#88FF55"/>
<stop offset="0.6" stop-color="#05DA73"/>
<stop offset="0.786666" stop-color="#20BDC6"/>
<stop offset="1" stop-color="#8F7AFF"/>
</linearGradient>
</defs>
</svg>
