<svg width="41" height="40" viewBox="0 0 41 40" fill="none" xmlns="http://www.w3.org/2000/svg">
<path d="M32.6632 15.9433H8.33653C7.84422 15.9438 7.3584 16.0556 6.91539 16.2703C6.47238 16.4851 6.08363 16.7971 5.77819 17.1833C5.47403 17.5683 5.26149 18.0175 5.15667 18.4968C5.05185 18.9762 5.0575 19.4731 5.17319 19.9499L7.78153 30.6299C8.15918 32.0059 8.97912 33.2195 10.1149 34.0833C11.2515 34.9483 12.6432 35.4166 14.0749 35.4166H26.9215C28.3532 35.4166 29.7449 34.9483 30.8815 34.0833C32.0173 33.2195 32.8372 32.0059 33.2149 30.6299L35.8232 19.9516C35.9988 19.2317 35.9217 18.4733 35.605 17.8034C35.2882 17.1335 34.751 16.5927 34.0832 16.2716C33.6389 16.0583 33.1527 15.9461 32.6599 15.9433M13.9782 22.4333V28.9249M20.4999 22.4333V28.9249M27.0215 22.4333V28.9249M31.9132 15.9433C31.9126 14.45 31.617 12.9716 31.0432 11.5929C30.4694 10.2143 29.6289 8.96267 28.5699 7.90992C26.4257 5.77742 23.524 4.58126 20.4999 4.58325C17.4758 4.58126 14.5741 5.77742 12.4299 7.90992C11.3711 8.9628 10.5309 10.2145 9.95742 11.5931C9.38395 12.9718 9.08855 14.4501 9.08819 15.9433" stroke="white" stroke-width="1.5" stroke-linecap="round" stroke-linejoin="round"/>
</svg>
