<svg width="155" height="28" viewBox="0 0 155 28" fill="none" xmlns="http://www.w3.org/2000/svg">
<mask id="mask0_177_1421" style="mask-type:alpha" maskUnits="userSpaceOnUse" x="0" y="0" width="80" height="24">
<path d="M3.49749 6.75895V23.6563H0V6.75895H3.49749ZM3.49749 0V3.37948H0V0H3.49749Z" fill="#05DA73"/>
<path d="M3.49749 6.75895V23.6563H0V6.75895H3.49749ZM3.49749 0V3.37948H0V0H3.49749Z" fill="url(#paint0_linear_177_1421)" fill-opacity="0.2"/>
<path d="M3.49749 6.75895V23.6563H0V6.75895H3.49749ZM3.49749 0V3.37948H0V0H3.49749Z" fill="black" fill-opacity="0.2"/>
<path d="M23.9561 16.8978V20.2772H20.4586V16.8978H23.9561ZM13.4637 3.37988V23.6567H12.4494C11.7266 23.6567 11.132 23.4314 10.6657 22.9808C10.1994 22.5302 9.96621 21.9557 9.96621 21.2573V3.37988H13.4637ZM20.4586 20.2772V23.6567H13.4637V20.2772H20.4586ZM20.4586 6.75935V10.1388H6.46875V6.75935H20.4586Z" fill="#05DA73"/>
<path d="M23.9561 16.8978V20.2772H20.4586V16.8978H23.9561ZM13.4637 3.37988V23.6567H12.4494C11.7266 23.6567 11.132 23.4314 10.6657 22.9808C10.1994 22.5302 9.96621 21.9557 9.96621 21.2573V3.37988H13.4637ZM20.4586 20.2772V23.6567H13.4637V20.2772H20.4586ZM20.4586 6.75935V10.1388H6.46875V6.75935H20.4586Z" fill="url(#paint1_linear_177_1421)" fill-opacity="0.2"/>
<path d="M23.9561 16.8978V20.2772H20.4586V16.8978H23.9561ZM13.4637 3.37988V23.6567H12.4494C11.7266 23.6567 11.132 23.4314 10.6657 22.9808C10.1994 22.5302 9.96621 21.9557 9.96621 21.2573V3.37988H13.4637ZM20.4586 20.2772V23.6567H13.4637V20.2772H20.4586ZM20.4586 6.75935V10.1388H6.46875V6.75935H20.4586Z" fill="black" fill-opacity="0.2"/>
<path d="M39.8814 6.75933H43.3791V23.6567H39.8814V6.75933ZM25.8916 13.3493C25.8916 11.9074 26.2763 10.6682 27.0458 9.63188C27.8152 8.5955 28.8645 7.80697 30.1935 7.26625C31.5459 6.703 33.0381 6.42139 34.6703 6.42139C36.279 6.42139 37.7482 6.703 39.0769 7.26625C40.406 7.80697 41.4553 8.5955 42.2248 9.63188C42.9942 10.6682 43.3791 11.9074 43.3791 13.3493V16.695C43.3791 18.1369 42.9942 19.3873 42.2248 20.4462C41.4553 21.4825 40.406 22.2823 39.0769 22.8456C37.7482 23.3863 36.279 23.6567 34.6703 23.6567C33.0381 23.6567 31.5459 23.3863 30.1935 22.8456C28.8645 22.2823 27.8152 21.4825 27.0458 20.4462C26.2763 19.3873 25.8916 18.1369 25.8916 16.695V13.3493ZM29.3891 16.2218C29.3891 17.7313 29.9254 18.7902 30.9979 19.3985C32.0938 19.9843 33.3179 20.2772 34.6703 20.2772C35.976 20.2772 37.1651 19.9843 38.2378 19.3985C39.3102 18.7902 39.8464 17.7313 39.8464 16.2218V13.8224C39.8464 12.3129 39.3102 11.2653 38.2378 10.6795C37.1885 10.0937 35.9991 9.80086 34.6703 9.80086C33.3179 9.80086 32.0938 10.0937 30.9979 10.6795C29.9254 11.2653 29.3891 12.3129 29.3891 13.8224V16.2218ZM36.384 13.3493V16.7288H32.8866V13.3493H36.384Z" fill="#05DA73"/>
<path d="M39.8814 6.75933H43.3791V23.6567H39.8814V6.75933ZM25.8916 13.3493C25.8916 11.9074 26.2763 10.6682 27.0458 9.63188C27.8152 8.5955 28.8645 7.80697 30.1935 7.26625C31.5459 6.703 33.0381 6.42139 34.6703 6.42139C36.279 6.42139 37.7482 6.703 39.0769 7.26625C40.406 7.80697 41.4553 8.5955 42.2248 9.63188C42.9942 10.6682 43.3791 11.9074 43.3791 13.3493V16.695C43.3791 18.1369 42.9942 19.3873 42.2248 20.4462C41.4553 21.4825 40.406 22.2823 39.0769 22.8456C37.7482 23.3863 36.279 23.6567 34.6703 23.6567C33.0381 23.6567 31.5459 23.3863 30.1935 22.8456C28.8645 22.2823 27.8152 21.4825 27.0458 20.4462C26.2763 19.3873 25.8916 18.1369 25.8916 16.695V13.3493ZM29.3891 16.2218C29.3891 17.7313 29.9254 18.7902 30.9979 19.3985C32.0938 19.9843 33.3179 20.2772 34.6703 20.2772C35.976 20.2772 37.1651 19.9843 38.2378 19.3985C39.3102 18.7902 39.8464 17.7313 39.8464 16.2218V13.8224C39.8464 12.3129 39.3102 11.2653 38.2378 10.6795C37.1885 10.0937 35.9991 9.80086 34.6703 9.80086C33.3179 9.80086 32.0938 10.0937 30.9979 10.6795C29.9254 11.2653 29.3891 12.3129 29.3891 13.8224V16.2218ZM36.384 13.3493V16.7288H32.8866V13.3493H36.384Z" fill="url(#paint2_linear_177_1421)" fill-opacity="0.2"/>
<path d="M39.8814 6.75933H43.3791V23.6567H39.8814V6.75933ZM25.8916 13.3493C25.8916 11.9074 26.2763 10.6682 27.0458 9.63188C27.8152 8.5955 28.8645 7.80697 30.1935 7.26625C31.5459 6.703 33.0381 6.42139 34.6703 6.42139C36.279 6.42139 37.7482 6.703 39.0769 7.26625C40.406 7.80697 41.4553 8.5955 42.2248 9.63188C42.9942 10.6682 43.3791 11.9074 43.3791 13.3493V16.695C43.3791 18.1369 42.9942 19.3873 42.2248 20.4462C41.4553 21.4825 40.406 22.2823 39.0769 22.8456C37.7482 23.3863 36.279 23.6567 34.6703 23.6567C33.0381 23.6567 31.5459 23.3863 30.1935 22.8456C28.8645 22.2823 27.8152 21.4825 27.0458 20.4462C26.2763 19.3873 25.8916 18.1369 25.8916 16.695V13.3493ZM29.3891 16.2218C29.3891 17.7313 29.9254 18.7902 30.9979 19.3985C32.0938 19.9843 33.3179 20.2772 34.6703 20.2772C35.976 20.2772 37.1651 19.9843 38.2378 19.3985C39.3102 18.7902 39.8464 17.7313 39.8464 16.2218V13.8224C39.8464 12.3129 39.3102 11.2653 38.2378 10.6795C37.1885 10.0937 35.9991 9.80086 34.6703 9.80086C33.3179 9.80086 32.0938 10.0937 30.9979 10.6795C29.9254 11.2653 29.3891 12.3129 29.3891 13.8224V16.2218ZM36.384 13.3493V16.7288H32.8866V13.3493H36.384Z" fill="black" fill-opacity="0.2"/>
<path d="M62.3633 14.1941C62.3633 12.6846 61.8271 11.637 60.7543 11.0512C59.6819 10.4429 58.4926 10.1387 57.1869 10.1387C55.8347 10.1387 54.6103 10.4429 53.5145 11.0512C52.4421 11.637 51.9059 12.6846 51.9059 14.1941V16.5935L48.4082 17.0667V13.721C48.4082 12.2791 48.7931 11.0399 49.5625 10.0036C50.332 8.94464 51.3812 8.14486 52.7103 7.60414C54.0626 7.04089 55.5549 6.75928 57.1869 6.75928C58.7959 6.75928 60.2532 7.04089 61.5588 7.60414C62.8879 8.14486 63.9372 8.94464 64.7066 10.0036C65.4761 11.0399 65.8606 12.2791 65.8606 13.721V23.6566H62.3633V14.1941ZM51.9059 13.1803V23.6566H48.4082V13.1803H51.9059ZM79.8507 20.2772V23.6566H76.353V20.2772H79.8507ZM76.318 14.1941C76.318 12.6846 75.7818 11.637 74.7094 11.0512C73.6367 10.4429 72.4477 10.1387 71.142 10.1387C69.7895 10.1387 68.5654 10.4429 67.4696 11.0512C66.3737 11.637 65.8256 12.6846 65.8256 14.1941V16.5935L62.3633 17.0667V13.721C62.3633 12.2791 62.7478 11.0399 63.5173 10.0036C64.2867 8.94464 65.336 8.14486 66.6651 7.60414C68.0173 7.04089 69.5096 6.75928 71.142 6.75928C72.7506 6.75928 74.2198 7.04089 75.5486 7.60414C76.8777 8.14486 77.927 8.94464 78.6964 10.0036C79.4658 11.0399 79.8507 12.2791 79.8507 13.721V20.2772H76.318V14.1941ZM49.4925 6.75928V10.1387H45.9951V6.75928H49.4925Z" fill="#05DA73"/>
<path d="M62.3633 14.1941C62.3633 12.6846 61.8271 11.637 60.7543 11.0512C59.6819 10.4429 58.4926 10.1387 57.1869 10.1387C55.8347 10.1387 54.6103 10.4429 53.5145 11.0512C52.4421 11.637 51.9059 12.6846 51.9059 14.1941V16.5935L48.4082 17.0667V13.721C48.4082 12.2791 48.7931 11.0399 49.5625 10.0036C50.332 8.94464 51.3812 8.14486 52.7103 7.60414C54.0626 7.04089 55.5549 6.75928 57.1869 6.75928C58.7959 6.75928 60.2532 7.04089 61.5588 7.60414C62.8879 8.14486 63.9372 8.94464 64.7066 10.0036C65.4761 11.0399 65.8606 12.2791 65.8606 13.721V23.6566H62.3633V14.1941ZM51.9059 13.1803V23.6566H48.4082V13.1803H51.9059ZM79.8507 20.2772V23.6566H76.353V20.2772H79.8507ZM76.318 14.1941C76.318 12.6846 75.7818 11.637 74.7094 11.0512C73.6367 10.4429 72.4477 10.1387 71.142 10.1387C69.7895 10.1387 68.5654 10.4429 67.4696 11.0512C66.3737 11.637 65.8256 12.6846 65.8256 14.1941V16.5935L62.3633 17.0667V13.721C62.3633 12.2791 62.7478 11.0399 63.5173 10.0036C64.2867 8.94464 65.336 8.14486 66.6651 7.60414C68.0173 7.04089 69.5096 6.75928 71.142 6.75928C72.7506 6.75928 74.2198 7.04089 75.5486 7.60414C76.8777 8.14486 77.927 8.94464 78.6964 10.0036C79.4658 11.0399 79.8507 12.2791 79.8507 13.721V20.2772H76.318V14.1941ZM49.4925 6.75928V10.1387H45.9951V6.75928H49.4925Z" fill="url(#paint3_linear_177_1421)" fill-opacity="0.2"/>
<path d="M62.3633 14.1941C62.3633 12.6846 61.8271 11.637 60.7543 11.0512C59.6819 10.4429 58.4926 10.1387 57.1869 10.1387C55.8347 10.1387 54.6103 10.4429 53.5145 11.0512C52.4421 11.637 51.9059 12.6846 51.9059 14.1941V16.5935L48.4082 17.0667V13.721C48.4082 12.2791 48.7931 11.0399 49.5625 10.0036C50.332 8.94464 51.3812 8.14486 52.7103 7.60414C54.0626 7.04089 55.5549 6.75928 57.1869 6.75928C58.7959 6.75928 60.2532 7.04089 61.5588 7.60414C62.8879 8.14486 63.9372 8.94464 64.7066 10.0036C65.4761 11.0399 65.8606 12.2791 65.8606 13.721V23.6566H62.3633V14.1941ZM51.9059 13.1803V23.6566H48.4082V13.1803H51.9059ZM79.8507 20.2772V23.6566H76.353V20.2772H79.8507ZM76.318 14.1941C76.318 12.6846 75.7818 11.637 74.7094 11.0512C73.6367 10.4429 72.4477 10.1387 71.142 10.1387C69.7895 10.1387 68.5654 10.4429 67.4696 11.0512C66.3737 11.637 65.8256 12.6846 65.8256 14.1941V16.5935L62.3633 17.0667V13.721C62.3633 12.2791 62.7478 11.0399 63.5173 10.0036C64.2867 8.94464 65.336 8.14486 66.6651 7.60414C68.0173 7.04089 69.5096 6.75928 71.142 6.75928C72.7506 6.75928 74.2198 7.04089 75.5486 7.60414C76.8777 8.14486 77.927 8.94464 78.6964 10.0036C79.4658 11.0399 79.8507 12.2791 79.8507 13.721V20.2772H76.318V14.1941ZM49.4925 6.75928V10.1387H45.9951V6.75928H49.4925Z" fill="black" fill-opacity="0.2"/>
</mask>
<g mask="url(#mask0_177_1421)">
<rect x="-7.49219" y="-6.31641" width="94.8341" height="36.2575" fill="url(#paint4_linear_177_1421)"/>
</g>
<path d="M84.7338 24.3501C84.5525 24.3501 84.3925 24.2861 84.2538 24.1581C84.1258 24.0195 84.0618 23.8541 84.0618 23.6621C84.0618 23.4701 84.1258 23.3101 84.2538 23.1821C84.3925 23.0541 84.5525 22.9901 84.7338 22.9901C84.9151 22.9901 85.0698 23.0541 85.1978 23.1821C85.3365 23.3101 85.4058 23.4701 85.4058 23.6621C85.4058 23.8541 85.3365 24.0195 85.1978 24.1581C85.0698 24.2861 84.9151 24.3501 84.7338 24.3501ZM96.8329 15.9341V24.2861H96.0969V17.2141L92.4649 23.2141H92.0969L88.4809 17.2301V24.2861H87.7449V15.9341H88.5289L92.3049 22.2541L96.0969 15.9341H96.8329ZM107.364 15.9341V24.2861H106.58V22.3181C106.249 22.9688 105.785 23.4701 105.188 23.8221C104.59 24.1741 103.913 24.3501 103.156 24.3501C102.377 24.3501 101.673 24.1688 101.044 23.8061C100.414 23.4435 99.9185 22.9421 99.5558 22.3021C99.2038 21.6621 99.0278 20.9315 99.0278 20.1101C99.0278 19.2888 99.2038 18.5581 99.5558 17.9181C99.9185 17.2675 100.414 16.7661 101.044 16.4141C101.673 16.0515 102.377 15.8701 103.156 15.8701C103.902 15.8701 104.569 16.0461 105.156 16.3981C105.753 16.7501 106.222 17.2408 106.564 17.8701V15.9341H107.364ZM103.204 23.6301C103.844 23.6301 104.414 23.4808 104.916 23.1821C105.428 22.8835 105.828 22.4675 106.116 21.9341C106.414 21.4008 106.564 20.7928 106.564 20.1101C106.564 19.4275 106.414 18.8195 106.116 18.2861C105.828 17.7528 105.428 17.3368 104.916 17.0381C104.414 16.7395 103.844 16.5901 103.204 16.5901C102.564 16.5901 101.988 16.7395 101.476 17.0381C100.974 17.3368 100.574 17.7528 100.276 18.2861C99.9878 18.8195 99.8438 19.4275 99.8438 20.1101C99.8438 20.7928 99.9878 21.4008 100.276 21.9341C100.574 22.4675 100.974 22.8835 101.476 23.1821C101.988 23.4808 102.564 23.6301 103.204 23.6301ZM116.161 16.6541H111.249V24.2861H110.449V15.9341H116.161V16.6541ZM124.552 15.9341V24.2861H123.768V22.3181C123.437 22.9688 122.973 23.4701 122.376 23.8221C121.779 24.1741 121.101 24.3501 120.344 24.3501C119.565 24.3501 118.861 24.1688 118.232 23.8061C117.603 23.4435 117.107 22.9421 116.744 22.3021C116.392 21.6621 116.216 20.9315 116.216 20.1101C116.216 19.2888 116.392 18.5581 116.744 17.9181C117.107 17.2675 117.603 16.7661 118.232 16.4141C118.861 16.0515 119.565 15.8701 120.344 15.8701C121.091 15.8701 121.757 16.0461 122.344 16.3981C122.941 16.7501 123.411 17.2408 123.752 17.8701V15.9341H124.552ZM120.392 23.6301C121.032 23.6301 121.603 23.4808 122.104 23.1821C122.616 22.8835 123.016 22.4675 123.304 21.9341C123.603 21.4008 123.752 20.7928 123.752 20.1101C123.752 19.4275 123.603 18.8195 123.304 18.2861C123.016 17.7528 122.616 17.3368 122.104 17.0381C121.603 16.7395 121.032 16.5901 120.392 16.5901C119.752 16.5901 119.176 16.7395 118.664 17.0381C118.163 17.3368 117.763 17.7528 117.464 18.2861C117.176 18.8195 117.032 19.4275 117.032 20.1101C117.032 20.7928 117.176 21.4008 117.464 21.9341C117.763 22.4675 118.163 22.8835 118.664 23.1821C119.176 23.4808 119.752 23.6301 120.392 23.6301ZM131.13 19.9341C131.748 20.0515 132.223 20.2861 132.554 20.6381C132.895 20.9795 133.066 21.4008 133.066 21.9021C133.066 22.3928 132.9 22.8248 132.57 23.1981C132.25 23.5715 131.812 23.8595 131.258 24.0621C130.703 24.2648 130.1 24.3661 129.45 24.3661C128.852 24.3661 128.266 24.2755 127.69 24.0941C127.124 23.9021 126.628 23.6301 126.202 23.2781L126.522 22.6861C126.895 23.0061 127.338 23.2515 127.85 23.4221C128.372 23.5928 128.9 23.6781 129.434 23.6781C130.223 23.6781 130.89 23.5128 131.434 23.1821C131.978 22.8408 132.25 22.3928 132.25 21.8381C132.25 21.3475 132.02 20.9635 131.562 20.6861C131.114 20.3981 130.506 20.2541 129.738 20.2541H128.394V19.6461H129.706C130.378 19.6461 130.927 19.5128 131.354 19.2461C131.791 18.9795 132.01 18.6221 132.01 18.1741C132.01 17.6515 131.77 17.2515 131.29 16.9741C130.82 16.6861 130.218 16.5421 129.482 16.5421C128.543 16.5421 127.658 16.7821 126.826 17.2621L126.586 16.6221C127.524 16.0995 128.522 15.8381 129.578 15.8381C130.506 15.8381 131.279 16.0408 131.898 16.4461C132.516 16.8408 132.826 17.3795 132.826 18.0621C132.826 18.4995 132.671 18.8835 132.362 19.2141C132.052 19.5448 131.642 19.7848 131.13 19.9341ZM142.672 15.9341V24.2861H141.888V22.5261C141.6 23.1021 141.184 23.5501 140.64 23.8701C140.106 24.1901 139.477 24.3501 138.752 24.3501C137.664 24.3501 136.805 24.0515 136.176 23.4541C135.557 22.8461 135.248 21.9661 135.248 20.8141V15.9341H136.048V20.7501C136.048 21.6888 136.288 22.4035 136.768 22.8941C137.248 23.3848 137.925 23.6301 138.8 23.6301C139.738 23.6301 140.485 23.3368 141.04 22.7501C141.594 22.1635 141.872 21.3741 141.872 20.3821V15.9341H142.672ZM145.794 15.9341H146.594V19.7421H152.258V15.9341H153.058V24.2861H152.258V20.4461H146.594V24.2861H145.794V15.9341Z" fill="white"/>
<defs>
<linearGradient id="paint0_linear_177_1421" x1="0" y1="11.8281" x2="3.49749" y2="11.8281" gradientUnits="userSpaceOnUse">
<stop stop-opacity="0"/>
<stop offset="1"/>
</linearGradient>
<linearGradient id="paint1_linear_177_1421" x1="6.46875" y1="13.5183" x2="23.9561" y2="13.5183" gradientUnits="userSpaceOnUse">
<stop stop-opacity="0"/>
<stop offset="1"/>
</linearGradient>
<linearGradient id="paint2_linear_177_1421" x1="25.8916" y1="15.039" x2="43.3791" y2="15.039" gradientUnits="userSpaceOnUse">
<stop stop-opacity="0"/>
<stop offset="1"/>
</linearGradient>
<linearGradient id="paint3_linear_177_1421" x1="45.9951" y1="15.2079" x2="79.8507" y2="15.2079" gradientUnits="userSpaceOnUse">
<stop stop-opacity="0"/>
<stop offset="1"/>
</linearGradient>
<linearGradient id="paint4_linear_177_1421" x1="-7.49219" y1="-9.59867" x2="89.8308" y2="29.8468" gradientUnits="userSpaceOnUse">
<stop offset="0.02" stop-color="#FF8964"/>
<stop offset="0.15" stop-color="#FFD951"/>
<stop offset="0.3" stop-color="#B0F254"/>
<stop offset="0.397368" stop-color="#88FF55"/>
<stop offset="0.6" stop-color="#05DA73"/>
<stop offset="0.786666" stop-color="#20BDC6"/>
<stop offset="1" stop-color="#8F7AFF"/>
</linearGradient>
</defs>
</svg>
