<svg width="40" height="40" viewBox="0 0 40 40" fill="none" xmlns="http://www.w3.org/2000/svg">
<path d="M32.475 33.5901L22.0383 23.1534C21.205 23.8634 20.2467 24.4129 19.1633 24.8017C18.08 25.1906 16.9911 25.3851 15.8967 25.3851C13.2278 25.3851 10.9689 24.4612 9.12001 22.6134C7.27112 20.7656 6.34668 18.5073 6.34668 15.8384C6.34668 13.1695 7.27001 10.9101 9.11668 9.06008C10.9633 7.21008 13.2211 6.28396 15.89 6.28174C18.5589 6.27952 20.8189 7.20396 22.67 9.05508C24.5211 10.9062 25.4467 13.1656 25.4467 15.8334C25.4467 16.9912 25.2417 18.1117 24.8317 19.1951C24.4217 20.2784 23.8828 21.2051 23.215 21.9751L33.6517 32.4101L32.475 33.5901ZM15.8983 23.7167C18.1095 23.7167 19.9761 22.9556 21.4983 21.4334C23.0206 19.9112 23.7817 18.044 23.7817 15.8317C23.7817 13.6195 23.0206 11.7529 21.4983 10.2317C19.9761 8.71063 18.1095 7.94952 15.8983 7.94841C13.6872 7.9473 11.82 8.70841 10.2967 10.2317C8.77335 11.7551 8.01224 13.6217 8.01335 15.8317C8.01446 18.0417 8.77557 19.9084 10.2967 21.4317C11.8178 22.9551 13.6845 23.7162 15.8967 23.7151" fill="#1E1D1C"/>
</svg>
